<svg width="164" height="46" viewBox="0 0 164 46" fill="none" xmlns="http://www.w3.org/2000/svg">
<g clip-path="url(#clip0_9_225)">
<path d="M48.9271 0.0740967V2.15884H45.802V10.4731H42.6769V2.15884H39.5518V0.0740967H48.9147H48.9271Z" fill="black"/>
<path d="M52.8305 4.15715H58.0308V6.24189H52.8305V8.32663H59.0807V10.4114H49.7178V0H59.0807V2.08474H52.8305V4.16948V4.15715Z" fill="black"/>
<path d="M69.5182 1.0362V4.15715H66.3931V2.07241H63.268V8.31429H66.3931V6.22955H69.5182V9.3505H68.4806V10.3867H61.1929V9.3505H60.1553V1.0362H61.1929V0H68.4806V1.0362H69.5182Z" fill="black"/>
<path d="M80.2152 0V10.399H77.0901V6.24189H73.965V10.399H70.8398V0H73.965V4.15715H77.0901V0H80.2152Z" fill="black"/>
<path d="M91.0607 0V10.399H87.9356V7.27809H86.898V6.24189H85.8604V5.20568H84.8229V10.399H81.6978V0H84.8229V1.0362H85.8604V2.07241H86.898V3.10861H87.9356V0H91.0607Z" fill="black"/>
<path d="M101.844 1.0362V9.3505H100.806V10.3867H93.5185V9.3505H92.481V1.0362H93.5185V0H100.806V1.0362H101.844ZM95.5937 8.31429H98.7188V2.08474H95.5937V8.32663V8.31429Z" fill="black"/>
<path d="M112.615 10.4238H103.252V0.0247192H106.377V8.33901H112.627V10.4238H112.615Z" fill="black"/>
<path d="M122.682 1.0362V9.3505H121.644V10.3867H114.356V9.3505H113.319V1.0362H114.356V0H121.644V1.0362H122.682ZM116.432 8.31429H119.557V2.08474H116.432V8.32663V8.31429Z" fill="black"/>
<path d="M133.404 1.0362V3.12094H131.316V2.08474H127.153V8.32663H130.279V6.24189H128.191V4.15715H133.391V9.3505H132.354V10.3867H125.066V9.3505H124.028V1.0362H125.066V0H132.354V1.0362H133.391H133.404Z" fill="black"/>
<path d="M143.755 0.0740967V5.26745H142.717V6.30365H141.68V7.33985H140.642V10.4608H137.517V7.33985H136.479V6.30365H135.442V5.26745H134.404V0.0740967H137.529V5.26745H140.655V0.0740967H143.78H143.755Z" fill="black"/>
<path d="M49.6188 28.1872H40.2559V17.7882H43.381V26.1025H49.6312V28.1872H49.6188Z" fill="black"/>
<path d="M53.5097 21.9207H58.71V24.0054H53.5097V26.0902H59.7599V28.1749H50.397V17.7759H59.7599V19.8606H53.5097V21.933V21.9207Z" fill="black"/>
<path d="M70.1605 19.9345V28.2488H67.0354V25.1279H63.9103V28.2488H60.7852V19.9345H61.8227V18.8983H62.8603V17.8621H68.0606V18.8983H69.0982V19.9345H70.1358H70.1605ZM63.9226 23.0555H67.0477V20.9707H66.0101V19.9345H64.9725V20.9707H63.935V23.0555H63.9226Z" fill="black"/>
<path d="M80.9313 19.8482V26.0901H79.8937V27.1263H78.8562V28.1625H71.5684V17.7635H78.8562V18.7997H79.8937V19.8359H80.9313V19.8482ZM76.7686 25.0416H77.8062V20.8844H76.7686V19.8482H74.6811V26.0901H76.7686V25.0539V25.0416Z" fill="black"/>
<path d="M85.3291 21.9207H90.5293V24.0054H85.3291V26.0902H91.5793V28.1749H82.2163V17.7759H91.5793V19.8606H85.3291V21.933V21.9207Z" fill="black"/>
<path d="M102.054 18.8613V23.0184H101.016V24.0546H98.9289V25.0908H99.9665V26.127H101.004V27.1632H102.042V28.1994H98.9166V27.1632H97.879V26.127H96.8414V25.0908H95.8038V28.2118H92.6787V17.8127H101.004V18.8489H102.042L102.054 18.8613ZM98.9289 21.9822V19.8975H95.8038V21.9822H98.9289Z" fill="black"/>
<path d="M112.516 18.886V20.9707H109.391V19.9345H106.266V22.0193H111.466V23.0555H112.504V27.2126H111.466V28.2488H104.178V27.2126H103.141V25.1402H106.266V26.1764H109.391V24.0917H104.191V23.0555H103.153V18.8983H104.191V17.8621H111.478V18.8983H112.516V18.886Z" fill="black"/>
<path d="M49.5573 36.5632V44.8775H48.5197V45.9137H41.2319V44.8775H40.1943V36.5632H41.2319V35.527H48.5197V36.5632H49.5573ZM43.3194 43.8413H46.4445V37.5994H43.3194V43.8413Z" fill="black"/>
<path d="M60.3528 36.5632V37.5994H54.1026V39.6718H59.3029V41.7565H54.1026V45.9137H50.9775V35.5146H60.3405V36.5508L60.3528 36.5632Z" fill="black"/>
<path d="M75.2742 35.601V37.6857H72.1491V46H69.024V37.6857H65.8989V35.601H75.2619H75.2742Z" fill="black"/>
<path d="M85.4281 35.527V45.9261H82.3029V41.7689H79.1778V45.9261H76.0527V35.527H79.1778V39.6842H82.3029V35.527H85.4281Z" fill="black"/>
<path d="M90.0351 39.6842H95.2354V41.7689H90.0351V43.8537H96.2853V45.9384H86.9224V35.5394H96.2853V37.6241H90.0351V39.6965V39.6842Z" fill="black"/>
<path d="M112.17 36.5632V37.5994H105.92V39.6718H111.12V41.7565H105.92V45.9137H102.795V35.5146H112.158V36.5508L112.17 36.5632Z" fill="black"/>
<path d="M122.385 35.601V44.9514H121.348V45.9876H114.06V44.9514H113.022V35.601H116.148V43.9152H119.273V35.601H122.398H122.385Z" fill="black"/>
<path d="M132.49 35.601V37.6857H129.364V46H126.239V37.6857H123.114V35.601H132.477H132.49Z" fill="black"/>
<path d="M142.606 35.601V44.9514H141.569V45.9876H134.281V44.9514H133.243V35.601H136.368V43.9152H139.493V35.601H142.618H142.606Z" fill="black"/>
<path d="M153.389 36.6248V40.7819H152.352V41.8181H150.264V42.8543H151.302V43.8905H152.34V44.9267H153.377V45.9629H150.252V44.9267H149.214V43.8905H148.177V42.8543H147.139V45.9753H144.014V35.5762H152.34V36.6124H153.377L153.389 36.6248ZM150.277 39.7457V37.661H147.152V39.7457H150.277Z" fill="black"/>
<path d="M157.762 39.6842H162.962V41.7689H157.762V43.8537H164.012V45.9384H154.649V35.5394H164.012V37.6241H157.762V39.6965V39.6842Z" fill="black"/>
<path d="M13.2786 13.3596V45.8396H0V0.296021H32.8568V13.3472H13.2786V13.3596ZM22.8639 31.9742L14.1556 23.2035L22.8639 14.4328L31.7204 23.2035L22.8639 31.9742Z" fill="#C1111E"/>
</g>
<defs>
<clipPath id="clip0_9_225">
<rect width="164" height="46" fill="white"/>
</clipPath>
</defs>
</svg>
