<svg width="5747" height="1620" viewBox="0 0 5747 1620" fill="none" xmlns="http://www.w3.org/2000/svg">
<path d="M1714.54 2.60938V76.0285H1605.02V368.836H1495.51V76.0285H1386V2.60938H1714.1H1714.54Z" fill="white"/>
<path d="M1851.32 146.404H2033.55V219.823H1851.32V293.242H2070.34V366.661H1742.24V0H2070.34V73.4191H1851.32V146.838V146.404Z" fill="white"/>
<path d="M2436.1 36.4924V146.404H2326.59V72.9847H2217.08V292.808H2326.59V219.389H2436.1V329.3H2399.74V365.792H2144.36V329.3H2108V36.4924H2144.36V0H2399.74V36.4924H2436.1Z" fill="white"/>
<path d="M2810.96 0V366.227H2701.45V219.823H2591.93V366.227H2482.42V0H2591.93V146.404H2701.45V0H2810.96Z" fill="white"/>
<path d="M3191 0V366.227H3081.49V256.315H3045.13V219.823H3008.77V183.331H2972.41V366.227H2862.9V0H2972.41V36.4924H3008.77V72.9847H3045.13V109.477H3081.49V0H3191Z" fill="white"/>
<path d="M3568.89 36.4924V329.3H3532.53V365.792H3277.14V329.3H3240.78V36.4924H3277.14V0H3532.53V36.4924H3568.89ZM3349.86 292.808H3459.37V73.4192H3349.86V293.242V292.808Z" fill="white"/>
<path d="M3946.33 367.096H3618.23V0.869629H3727.74V293.677H3946.77V367.096H3946.33Z" fill="white"/>
<path d="M4299.1 36.4924V329.3H4262.74V365.792H4007.36V329.3H3971V36.4924H4007.36V0H4262.74V36.4924H4299.1ZM4080.08 292.808H4189.59V73.4192H4080.08V293.242V292.808Z" fill="white"/>
<path d="M4674.82 36.4924V109.912H4601.67V73.4192H4455.79V293.242H4565.31V219.823H4492.15V146.404H4674.39V329.3H4638.03V365.792H4382.64V329.3H4346.28V36.4924H4382.64V0H4638.03V36.4924H4674.39H4674.82Z" fill="white"/>
<path d="M5037.56 2.60938V185.506H5001.2V221.998H4964.84V258.49H4928.48V368.402H4818.97V258.49H4782.61V221.998H4746.25V185.506H4709.89V2.60938H4819.4V185.506H4928.91V2.60938H5038.42H5037.56Z" fill="white"/>
<path d="M1738.78 992.681H1410.67V626.454H1520.19V919.262H1739.21V992.681H1738.78Z" fill="white"/>
<path d="M1875.13 771.988H2057.36V845.408H1875.13V918.827H2094.15V992.246H1766.05V626.019H2094.15V699.438H1875.13V772.423V771.988Z" fill="white"/>
<path d="M2458.61 702.042V994.85H2349.1V884.939H2239.58V994.85H2130.07V702.042H2166.43V665.55H2202.79V629.058H2385.02V665.55H2421.38V702.042H2457.74H2458.61ZM2240.02 811.954H2349.53V738.535H2313.17V702.042H2276.81V738.535H2240.45V811.954H2240.02Z" fill="white"/>
<path d="M2836.06 699.004V918.827H2799.7V955.319H2763.34V991.811H2507.95V625.584H2763.34V662.077H2799.7V698.569H2836.06V699.004ZM2690.18 881.9H2726.54V735.496H2690.18V699.004H2617.03V918.827H2690.18V882.334V881.9Z" fill="white"/>
<path d="M2990.16 771.988H3172.39V845.408H2990.16V918.827H3209.18V992.246H2881.08V626.019H3209.18V699.438H2990.16V772.423V771.988Z" fill="white"/>
<path d="M3576.24 664.245V810.649H3539.88V847.141H3466.73V883.634H3503.09V920.126H3539.45V956.618H3575.81V993.111H3466.3V956.618H3429.94V920.126H3393.58V883.634H3357.22V993.545H3247.7V627.318H3539.45V663.811H3575.81L3576.24 664.245ZM3466.73 774.157V700.737H3357.22V774.157H3466.73Z" fill="white"/>
<path d="M3942.87 665.116V738.535H3833.35V702.042H3723.84V775.462H3906.07V811.954H3942.43V958.358H3906.07V994.85H3650.69V958.358H3614.33V885.373H3723.84V921.865H3833.35V848.446H3651.12V811.954H3614.76V665.55H3651.12V629.058H3906.51V665.55H3942.87V665.116Z" fill="white"/>
<path d="M1736.61 1287.66V1580.47H1700.25V1616.96H1444.87V1580.47H1408.51V1287.66H1444.87V1251.17H1700.25V1287.66H1736.61ZM1518.02 1543.98H1627.53V1324.15H1518.02V1543.98Z" fill="white"/>
<path d="M2114.93 1287.66V1324.15H1895.9V1397.14H2078.13V1470.56H1895.9V1616.96H1786.39V1250.73H2114.49V1287.23L2114.93 1287.66Z" fill="white"/>
<path d="M2637.82 1253.77V1327.19H2528.3V1620H2418.79V1327.19H2309.28V1253.77H2637.38H2637.82Z" fill="white"/>
<path d="M2993.62 1251.17V1617.4H2884.11V1470.99H2774.6V1617.4H2665.08V1251.17H2774.6V1397.57H2884.11V1251.17H2993.62Z" fill="white"/>
<path d="M3155.08 1397.57H3337.31V1470.99H3155.08V1544.41H3374.1V1617.83H3046V1251.6H3374.1V1325.02H3155.08V1398.01V1397.57Z" fill="white"/>
<path d="M3930.74 1287.66V1324.15H3711.72V1397.14H3893.95V1470.56H3711.72V1616.96H3602.21V1250.73H3930.31V1287.23L3930.74 1287.66Z" fill="white"/>
<path d="M4288.72 1253.77V1583.07H4252.36V1619.56H3996.97V1583.07H3960.61V1253.77H4070.13V1546.58H4179.64V1253.77H4289.15H4288.72Z" fill="white"/>
<path d="M4642.79 1253.77V1327.19H4533.28V1620H4423.76V1327.19H4314.25V1253.77H4642.35H4642.79Z" fill="white"/>
<path d="M4997.3 1253.77V1583.07H4960.94V1619.56H4705.56V1583.07H4669.2V1253.77H4778.71V1546.58H4888.22V1253.77H4997.74H4997.3Z" fill="white"/>
<path d="M5375.18 1289.83V1436.23H5338.82V1472.73H5265.67V1509.22H5302.03V1545.71H5338.39V1582.2H5374.75V1618.7H5265.24V1582.2H5228.88V1545.71H5192.52V1509.22H5156.16V1619.13H5046.65V1252.9H5338.39V1289.4H5374.75L5375.18 1289.83ZM5266.1 1399.74V1326.32H5156.59V1399.74H5266.1Z" fill="white"/>
<path d="M5528.41 1397.57H5710.64V1470.99H5528.41V1544.41H5747.43V1617.83H5419.33V1251.6H5747.43V1325.02H5528.41V1398.01V1397.57Z" fill="white"/>
<path d="M465.318 470.49V1614.35H0V10.4258H1151.39V470.056H465.318V470.49ZM801.212 1126.05L496.051 817.167L801.212 508.286L1111.57 817.167L801.212 1126.05Z" fill="white"/>
</svg>
